<?xml version="1.0" standalone="no"?>
<!DOCTYPE svg PUBLIC "-//W3C//DTD SVG 20010904//EN"
 "http://www.w3.org/TR/2001/REC-SVG-20010904/DTD/svg10.dtd">
<svg version="1.0" xmlns="http://www.w3.org/2000/svg"
 width="191.000000pt" height="178.000000pt" viewBox="0 0 191.000000 178.000000"
 preserveAspectRatio="xMidYMid meet">

<g transform="translate(0.000000,178.000000) scale(0.100000,-0.100000)"
fill="#000000" stroke="none">
<path d="M720 1764 c-281 -60 -521 -250 -639 -506 -51 -110 -71 -192 -78 -313
-24 -437 282 -829 719 -919 42 -9 102 -16 133 -16 l55 0 0 94 0 93 -61 7
c-302 31 -548 235 -620 513 -23 91 -27 231 -9 319 58 284 313 509 615 541 l70
8 3 98 3 97 -63 -1 c-35 0 -92 -7 -128 -15z"/>
<path d="M1189 1734 c-42 -27 -62 -70 -56 -116 17 -129 203 -143 237 -18 12
45 -2 92 -39 124 -29 26 -108 32 -142 10z"/>
<path d="M1534 1431 c-98 -60 -46 -214 71 -214 111 0 162 124 83 203 -24 25
-38 30 -76 30 -29 0 -59 -8 -78 -19z"/>
<path d="M1710 1013 c-64 -20 -90 -56 -90 -122 0 -58 40 -101 101 -108 81 -9
139 41 139 120 0 69 -85 132 -150 110z"/>
<path d="M1554 565 c-82 -42 -85 -168 -4 -210 85 -44 180 11 180 105 0 85 -99
144 -176 105z"/>
<path d="M1223 273 c-13 -2 -36 -18 -53 -34 -25 -26 -30 -38 -30 -81 0 -44 4
-54 34 -84 28 -28 42 -34 75 -34 53 0 97 22 116 60 34 65 7 138 -61 166 -34
14 -41 15 -81 7z"/>
</g>
</svg>
