<?xml version="1.0" standalone="no"?>
<!DOCTYPE svg PUBLIC "-//W3C//DTD SVG 20010904//EN"
 "http://www.w3.org/TR/2001/REC-SVG-20010904/DTD/svg10.dtd">
<svg version="1.0" xmlns="http://www.w3.org/2000/svg"
 width="874.000000pt" height="178.000000pt" viewBox="0 0 874.000000 178.000000"
 preserveAspectRatio="xMidYMid meet">

<g transform="translate(0.000000,178.000000) scale(0.100000,-0.100000)"
fill="#000000" stroke="none">
<path d="M720 1764 c-318 -68 -579 -301 -679 -604 -32 -96 -45 -247 -31 -366
42 -378 331 -690 712 -768 42 -9 102 -16 133 -16 l55 0 0 93 0 93 -82 11
c-172 23 -308 90 -423 207 -38 40 -87 101 -108 136 -124 213 -119 503 13 705
51 78 167 190 241 232 75 43 190 80 279 90 l75 8 3 98 3 97 -63 -1 c-35 0 -92
-7 -128 -15z"/>
<path d="M1188 1733 c-60 -38 -74 -129 -27 -179 67 -72 184 -46 209 46 12 45
-2 92 -39 124 -30 27 -108 32 -143 9z"/>
<path d="M1534 1431 c-43 -26 -61 -79 -45 -132 32 -106 196 -109 231 -4 15 47
5 89 -32 125 -24 25 -38 30 -76 30 -29 0 -59 -8 -78 -19z"/>
<path d="M2663 1311 c-109 -40 -191 -120 -235 -229 -31 -81 -31 -242 1 -324
42 -109 133 -195 244 -232 93 -31 266 -15 385 35 l42 18 0 161 0 160 -55 0
-54 0 -3 -122 -3 -123 -55 -18 c-84 -29 -187 -26 -254 7 -98 48 -150 144 -150
276 0 108 26 172 94 233 93 84 185 88 420 20 10 -3 23 11 38 42 l22 46 -47 20
c-116 50 -295 64 -390 30z"/>
<path d="M6005 1310 c-164 -55 -265 -203 -265 -388 0 -136 38 -231 125 -311
119 -109 290 -131 478 -61 l57 21 -25 48 -24 48 -73 -25 c-236 -79 -418 42
-418 278 0 233 189 356 423 276 l68 -23 25 49 c13 26 23 48 22 48 -2 0 -37 12
-78 26 -105 36 -233 42 -315 14z"/>
<path d="M7441 1319 c-90 -18 -171 -85 -191 -161 -15 -53 2 -127 38 -170 33
-39 141 -89 248 -116 44 -11 101 -30 127 -42 121 -57 93 -179 -47 -211 -73
-16 -184 -2 -275 35 l-61 25 -20 -39 c-11 -22 -20 -43 -20 -48 0 -15 95 -52
174 -69 149 -31 305 -5 380 65 77 72 86 200 19 274 -32 36 -119 77 -228 108
-144 42 -200 71 -213 109 -18 52 4 97 63 129 50 27 202 21 291 -12 39 -14 74
-26 78 -26 5 0 46 73 46 83 0 3 -23 14 -51 27 -105 44 -249 61 -358 39z"/>
<path d="M8239 1308 c-17 -20 -329 -759 -329 -780 0 -5 27 -8 59 -8 l59 0 35
88 35 87 201 3 c111 1 201 1 201 0 0 -2 16 -41 34 -88 l34 -85 61 -3 c34 -2
61 1 61 5 0 11 -293 720 -314 761 -17 34 -33 42 -83 42 -23 0 -41 -7 -54 -22z
m140 -311 c39 -97 71 -182 71 -187 0 -6 -58 -10 -150 -10 -113 0 -150 3 -150
12 0 24 145 377 152 370 3 -4 38 -87 77 -185z"/>
<path d="M6560 1300 c-19 -19 -20 -33 -20 -383 0 -340 1 -365 18 -380 16 -15
51 -17 290 -17 l272 0 0 50 0 50 -230 0 -230 0 0 125 0 125 200 0 200 0 0 50
0 50 -200 0 -200 0 0 125 0 125 230 0 230 0 0 50 0 50 -270 0 c-257 0 -271 -1
-290 -20z"/>
<path d="M3455 1075 c-98 -30 -95 -29 -95 -5 0 18 -7 20 -55 20 l-55 0 0 -285
0 -285 60 0 60 0 0 215 0 214 53 16 c28 9 78 18 110 22 l57 6 0 53 c0 52 -1
54 -27 53 -16 0 -64 -11 -108 -24z"/>
<path d="M4555 1093 c-69 -15 -147 -48 -160 -66 -13 -18 -15 -79 -15 -389 l0
-368 55 0 55 0 0 131 c0 121 1 131 18 124 9 -4 58 -9 108 -12 151 -9 244 38
301 155 24 49 28 69 27 137 -1 135 -64 231 -180 275 -52 19 -154 26 -209 13z
m173 -107 c72 -38 108 -112 99 -207 -7 -76 -35 -122 -93 -149 -39 -19 -58 -22
-135 -18 -49 2 -94 9 -99 14 -7 7 -9 74 -8 179 l3 168 35 13 c48 17 165 17
198 0z"/>
<path d="M5226 1084 c-65 -20 -146 -101 -169 -168 -21 -62 -22 -147 -1 -215
23 -78 99 -154 178 -176 158 -46 309 12 373 143 23 48 28 70 28 137 0 67 -5
89 -28 137 -64 130 -224 190 -381 142z m210 -109 c108 -63 114 -263 11 -337
-38 -27 -141 -37 -187 -18 -107 44 -141 216 -63 319 33 42 74 60 142 61 40 0
65 -6 97 -25z"/>
<path d="M3700 863 c0 -205 2 -231 20 -268 31 -65 67 -80 185 -79 83 0 111 5
167 26 l67 27 3 -27 c3 -25 6 -27 53 -27 l50 0 3 288 2 287 -60 0 -60 0 -2
-217 -3 -217 -70 -23 c-74 -23 -174 -30 -205 -13 -31 17 -40 75 -40 278 l0
192 -55 0 -55 0 0 -227z"/>
<path d="M1682 1003 c-103 -50 -75 -207 39 -220 144 -16 196 168 63 223 -43
18 -61 17 -102 -3z"/>
<path d="M1552 564 c-58 -30 -79 -103 -47 -164 41 -79 169 -79 210 0 25 49 19
96 -18 136 -39 43 -94 54 -145 28z"/>
<path d="M1223 273 c-30 -6 -81 -57 -85 -86 -12 -76 43 -147 113 -147 83 0
136 56 126 132 -6 46 -29 75 -74 94 -33 14 -40 15 -80 7z"/>
</g>
</svg>
